<?xml version="1.0" encoding="UTF-8" standalone="no"?>
<svg
   height="16px"
   viewBox="0 0 16 16"
   width="16px"
   version="1.1"
   id="svg1"
   sodipodi:docname="window-maximize-symbolic-rtl.svg"
   inkscape:version="1.4.4 (dcaf3e7d9e, 2026-05-05)"
   xmlns:inkscape="http://www.inkscape.org/namespaces/inkscape"
   xmlns:sodipodi="http://sodipodi.sourceforge.net/DTD/sodipodi-0.dtd"
   xmlns="http://www.w3.org/2000/svg"
   xmlns:svg="http://www.w3.org/2000/svg">
  <defs
     id="defs1" />
  <sodipodi:namedview
     id="namedview1"
     pagecolor="#ffffff"
     bordercolor="#000000"
     borderopacity="0.25"
     inkscape:showpageshadow="2"
     inkscape:pageopacity="0.0"
     inkscape:pagecheckerboard="0"
     inkscape:deskcolor="#d1d1d1"
     inkscape:zoom="35.6875"
     inkscape:cx="8"
     inkscape:cy="7.9859895"
     inkscape:window-width="1440"
     inkscape:window-height="831"
     inkscape:window-x="0"
     inkscape:window-y="0"
     inkscape:window-maximized="1"
     inkscape:current-layer="svg1" />
  <path
     id="rect1"
     style="opacity:1;fill:#2e3436;fill-opacity:1;stroke-width:7.99999;stroke-linecap:round;stroke-linejoin:round"
     d="M 8,4 A 1,1 0 0 1 9,5 1,1 0 0 1 8,6 H 6 V 8 A 1,1 0 0 1 5,9 1,1 0 0 1 4,8 V 4 Z m 3,3 a 1,1 0 0 1 1,1 v 4 H 8 A 1,1 0 0 1 7,11 1,1 0 0 1 8,10 h 2 V 8 a 1,1 0 0 1 1,-1 z" />
</svg>
