<?xml version="1.0" encoding="UTF-8" standalone="no"?>
<!-- Created with Inkscape (http://www.inkscape.org/) -->

<svg
   width="16"
   height="16"
   viewBox="0 0 4.2333332 4.2333335"
   version="1.1"
   id="svg11945"
   inkscape:version="1.4.2 (ebf0e940d0, 2025-05-08)"
   sodipodi:docname="system-software-update-symbolic.svg"
   xmlns:inkscape="http://www.inkscape.org/namespaces/inkscape"
   xmlns:sodipodi="http://sodipodi.sourceforge.net/DTD/sodipodi-0.dtd"
   xmlns="http://www.w3.org/2000/svg"
   xmlns:svg="http://www.w3.org/2000/svg">
  <sodipodi:namedview
     id="namedview11947"
     pagecolor="#ffffff"
     bordercolor="#666666"
     borderopacity="1.0"
     inkscape:pageshadow="2"
     inkscape:pageopacity="0.0"
     inkscape:pagecheckerboard="0"
     inkscape:document-units="px"
     showgrid="false"
     units="in"
     inkscape:zoom="35.625"
     inkscape:cx="8"
     inkscape:cy="8"
     inkscape:window-width="1440"
     inkscape:window-height="831"
     inkscape:window-x="0"
     inkscape:window-y="0"
     inkscape:window-maximized="1"
     inkscape:current-layer="svg11945"
     showguides="false"
     inkscape:showpageshadow="2"
     inkscape:deskcolor="#d1d1d1" />
  <defs
     id="defs11942" />
  <path
     d="m 2.1166666,0.26458333 c -1.0228773,-2e-8 -1.85208329,0.82920597 -1.85208327,1.85208327 -2e-8,1.0228773 0.82920597,1.8520834 1.85208327,1.8520834 1.0228773,0 1.8520834,-0.8292061 1.8520834,-1.8520834 0,-1.0228773 -0.8292061,-1.85208329 -1.8520834,-1.85208327 z m 0,0.79374997 c 0.5845014,0 1.0583334,0.473832 1.0583334,1.0583333 h 0.2645833 l -0.396875,0.396875 -0.396875,-0.396875 h 0.2645833 c 0,-0.438376 -0.3553739,-0.79375 -0.79375,-0.79375 -0.438376,0 -0.79375,0.355374 -0.79375,0.79375 0,0.4383761 0.355374,0.79375 0.79375,0.79375 V 3.175 c -0.5845013,0 -1.0583333,-0.473832 -1.0583333,-1.0583334 0,-0.5845013 0.473832,-1.0583333 1.0583333,-1.0583333 z"
     style="fill:#4d4d4d;fill-opacity:1;stroke-width:1.05833;stroke-linecap:round;stroke-linejoin:round"
     id="path1" />
</svg>
