<?xml version="1.0" encoding="UTF-8" standalone="no"?>
<svg
   width="16"
   height="16"
   version="1.1"
   id="svg1"
   sodipodi:docname="firefox-symbolic.svg"
   inkscape:version="1.4.2 (ebf0e940d0, 2025-05-08)"
   xmlns:inkscape="http://www.inkscape.org/namespaces/inkscape"
   xmlns:sodipodi="http://sodipodi.sourceforge.net/DTD/sodipodi-0.dtd"
   xmlns="http://www.w3.org/2000/svg"
   xmlns:svg="http://www.w3.org/2000/svg">
  <defs
     id="defs1" />
  <sodipodi:namedview
     id="namedview1"
     pagecolor="#ffffff"
     bordercolor="#000000"
     borderopacity="0.25"
     inkscape:showpageshadow="2"
     inkscape:pageopacity="0.0"
     inkscape:pagecheckerboard="0"
     inkscape:deskcolor="#d1d1d1"
     inkscape:zoom="35.625"
     inkscape:cx="8"
     inkscape:cy="8"
     inkscape:window-width="1440"
     inkscape:window-height="831"
     inkscape:window-x="0"
     inkscape:window-y="0"
     inkscape:window-maximized="1"
     inkscape:current-layer="svg1" />
  <path
     id="path1"
     d="M 10.503906 -0.001953125 A 0.026 0.026 0 0 0 10.5 0 L 10.494141 0 A 5.629 5.629 0 0 0 7.7382812 4.3085938 C 7.8322813 4.3025937 7.9264844 4.2949219 8.0214844 4.2949219 A 4.069 4.069 0 0 1 11.53125 6.2773438 A 2.838 2.838 0 0 0 9.5996094 5.8242188 A 3.2 3.2 0 0 1 7.7148438 11.837891 A 3.651 3.651 0 0 1 6.6738281 11.636719 C 6.5958281 11.608719 6.5155 11.578922 6.4375 11.544922 C 6.3915 11.524922 6.3467344 11.504422 6.3027344 11.482422 A 3.282 3.282 0 0 1 4.4140625 8.9492188 C 4.4140625 8.9492188 4.7845 7.6152344 7.0625 7.6152344 A 1.91 1.91 0 0 0 8.0253906 6.7597656 A 12.756 12.756 0 0 1 6.0859375 5.640625 C 5.7959375 5.363625 5.6562031 5.2308594 5.5332031 5.1308594 C 5.4672031 5.0768594 5.4051719 5.0305156 5.3261719 4.9785156 A 3.481 3.481 0 0 1 5.3046875 3.0839844 A 5.915 5.915 0 0 0 3.3769531 4.5253906 A 4.108 4.108 0 0 1 3.0996094 2.5839844 A 1.561 1.561 0 0 0 2.8320312 2.7226562 A 5.767 5.767 0 0 0 2.0507812 3.3710938 A 6.9 6.9 0 0 0 1.3027344 4.2382812 A 6.446 6.446 0 0 0 0.22265625 6.5878906 C 0.22265625 6.5968906 0.14679687 6.9127344 0.091796875 7.3027344 L 0.06640625 7.484375 C 0.04740625 7.601375 0.032578125 7.7287344 0.017578125 7.9277344 L 0.017578125 7.9511719 C 0.012578125 8.0271719 0.006953125 8.1109844 0.001953125 8.2089844 L 0.001953125 8.2480469 A 7.884 7.884 0 0 0 8.0117188 16 A 7.941 7.941 0 0 0 15.910156 9.5605469 L 15.947266 9.2597656 A 7.724 7.724 0 0 0 15.423828 5.3652344 A 4.384 4.384 0 0 0 13.816406 3.4003906 A 7.893 7.893 0 0 1 14.628906 5.7539062 L 14.628906 5.7695312 C 13.728906 3.5845312 12.186734 2.7031563 10.927734 0.78515625 L 10.738281 0.48632812 C 10.703281 0.42732813 10.675391 0.37321875 10.650391 0.32421875 A 1.341 1.341 0 0 1 10.53125 0.01953125 A 0.022 0.022 0 0 0 10.53125 0.013671875 A 0.022 0.022 0 0 0 10.527344 0.0078125 A 0.022 0.022 0 0 0 10.525391 0.005859375 A 0.022 0.022 0 0 0 10.523438 0.00390625 A 0.022 0.022 0 0 0 10.521484 0.001953125 A 0.022 0.022 0 0 0 10.519531 0 A 0.026 0.026 0 0 0 10.513672 -0.001953125 A 0.026 0.026 0 0 0 10.503906 -0.001953125 z "
     style="fill:#dfdfdf;fill-opacity:1" />
</svg>
